<svg viewBox="0 0 15.9375 15.9453" xmlns="http://www.w3.org/2000/svg"><path d="m7.96875 15.9375c4.35935 0 7.96875-3.6172 7.96875-7.96875 0-4.35937-3.6172-7.96875-7.97656-7.96875-4.35156 0-7.96094 3.60938-7.96094 7.96875 0 4.35155 3.61719 7.96875 7.96875 7.96875zm0-1.3281c-3.6875 0-6.63281-2.9532-6.63281-6.64065 0-3.6875 2.9375-6.64063 6.625-6.64063 3.68746 0 6.64846 2.95313 6.64846 6.64063 0 3.68745-2.9532 6.64065-6.64065 6.64065z"/><path d="m4.53906 8.50781c0 .19531.15625.33594.35938.33594h2.64844l-1.41407 3.79685c-.1875.5.34375.7735.67188.3672l4.28121-5.37499c.086-.09375.1329-.20312.1329-.30469 0-.19531-.1563-.33593-.3594-.33593h-2.64846l1.41406-3.79688c.1875-.5-.34375-.77343-.67188-.375l-4.28124 5.375c-.08594.10157-.13282.21094-.13282.3125z"/></svg>